<svg width="260" height="260" viewBox="0 0 260 260" xmlns="http://www.w3.org/2000/svg"><defs><filter id="c"><feGaussianBlur stdDeviation="4" result="blur"/><feFlood flood-color="#ff3b00" flood-opacity=".6"/><feComposite in2="blur" operator="in"/><feMerge><feMergeNode/><feMergeNode in="SourceGraphic"/></feMerge></filter><filter id="b"><feDropShadow dx="0" dy="4" stdDeviation="6" flood-color="#000" flood-opacity=".12"/></filter><linearGradient id="a" x1="0%" y1="0%" x2="100%" y2="100%"><stop offset="0%" stop-color="#fff7ed"/><stop offset="100%" stop-color="#fef3c7"/></linearGradient></defs><circle cx="130" cy="130" r="125" fill="url(#a)" stroke="#ff3b00" stroke-width="4" filter="url(#b)"/><g transform="rotate(-7 612.245 -618.994)"><rect width="100" height="100" rx="12" fill="#fff" stroke="#ff3b00" stroke-width="3.5" filter="url(#b)"/><path d="M15 25q5-5 10 0t10 0 10 0 10 3 10 2" fill="none" stroke="#f59e0b" stroke-width="4" stroke-linecap="round"/><path d="m70 20 4 10 10 2-8 6 2 10-8-5-8 5 2-10-8-6 10-2Z" fill="#ec4899"/><path d="M20 50q10-5 20 0t20 0 20 0" fill="none" stroke="#10b981" stroke-width="3.5" stroke-linecap="round"/><circle cx="35" cy="70" r="6" fill="#8b5cf6"/><path d="M80 75q0-5 5-5t5 5-5 5-5 5q0-5-5-5t-5-5 5-5 5 5" fill="#ff3b00" stroke="#fff"/></g><g filter="url(#c)" fill="none" stroke="#ff3b00" stroke-width="7" stroke-linecap="round"><path d="M130 180q-15 5-20 10t0 10 20 0m0-20q15 5 20 10t0 10-20 0"/></g><g transform="rotate(30 -73.612 359.724)"><path d="m0 0 20 20-8 12h-24l-8-12Z" fill="#ff3b00" stroke="#c2410c" stroke-width="2"/><rect x="-10" y="32" width="20" height="24" rx="3" fill="#fed7aa"/><rect x="-8" y="56" width="16" height="6" rx="2" fill="#fca5a5"/></g><circle cx="45" cy="100" r="9" fill="#f472b6"/><circle cx="215" cy="90" r="8" fill="#fbbf24"/><circle cx="70" cy="185" r="7" fill="#34d399"/><circle cx="190" cy="170" r="10" fill="#60a5fa"/><path d="m33 33 1.2 3 3 1.2-3 1.2-1.2 3-1.2-3-3-1.2 3-1.2Zm79.75 5.5 1.1 2.75 2.75 1.1-2.75 1.1-1.1 2.75-1.1-2.75-2.75-1.1 2.75-1.1Z" fill="#fcd34d"/></svg>